name C:\Users\u0101727\Documents\MyRepositories\upper-imu-dc\Results\main_tracking\Case_22\SHRUG01_orientations_groundFrame.mot
datacolumns 13
datarows 25
range 2.21000000 2.45000000
endheader 
time	radius_imu_[0][0]	radius_imu_[0][1]	radius_imu_[0][2]	radius_imu_[1][0]	radius_imu_[1][1]	radius_imu_[1][2]	radius_imu_[2][0]	radius_imu_[2][1]	radius_imu_[2][2]	radius_imu_x	radius_imu_y	radius_imu_z	
          2.21000000	          0.60775623	         -0.15317589	          0.77921083	         -0.17701977	          0.93040053	          0.32096550	         -0.77414234	         -0.33300450	          0.53834156	         -0.53762927	          0.89340571	          0.24689311	
          2.22000000	          0.61004285	         -0.15338218	          0.77738126	         -0.17473494	          0.93089199	          0.32079246	         -0.77286184	         -0.33153282	          0.54108278	         -0.53516133	          0.89049190	          0.24632271	
          2.23000000	          0.61143700	         -0.15401574	          0.77615974	         -0.17282614	          0.93120131	          0.32092872	         -0.77218904	         -0.33036839	          0.54275299	         -0.53399635	          0.88855231	          0.24675804	
          2.24000000	          0.61149125	         -0.15489682	          0.77594164	         -0.17157249	          0.93136281	          0.32113268	         -0.77242562	         -0.32950006	          0.54294417	         -0.53412040	          0.88820649	          0.24809149	
          2.25000000	          0.60982543	         -0.15582967	          0.77706503	         -0.17125481	          0.93140566	          0.32117798	         -0.77381182	         -0.32893863	          0.54130827	         -0.53550549	          0.88998932	          0.25017806	
          2.26000000	          0.60615024	         -0.15662766	          0.77977539	         -0.17212839	          0.93134894	          0.32087531	         -0.77650094	         -0.32872013	          0.53757732	         -0.53813068	          0.89430697	          0.25286638	
          2.27000000	          0.60030905	         -0.15713481	          0.78417963	         -0.17438561	          0.93119884	          0.32009122	         -0.78052463	         -0.32890330	          0.53160504	         -0.54197851	          0.90137298	          0.25601266	
          2.28000000	          0.59228196	         -0.15724226	          0.79023854	         -0.17813375	          0.93094882	          0.31875173	         -0.78579288	         -0.32955905	          0.52337403	         -0.54703450	          0.91119817	          0.25949930	
          2.29000000	          0.58232568	         -0.15690922	          0.79766929	         -0.18331825	          0.93058036	          0.31688266	         -0.79201718	         -0.33075625	          0.51313652	         -0.55321730	          0.92342070	          0.26320164	
          2.30000000	          0.57107285	         -0.15617550	          0.80590633	         -0.18967594	          0.93006622	          0.31464245	         -0.79868570	         -0.33254480	          0.50151283	         -0.56031371	          0.93720473	          0.26695009	
          2.31000000	          0.55959748	         -0.15515804	          0.81411096	         -0.19672172	          0.92937608	          0.31234704	         -0.80507840	         -0.33494192	          0.48955355	         -0.56791030	          0.95119658	          0.27047281	
          2.32000000	          0.54942523	         -0.15402187	          0.82122419	         -0.20377814	          0.92848331	          0.31047257	         -0.81031252	         -0.33792900	          0.47874587	         -0.57532866	          0.96355315	          0.27331720	
          2.33000000	          0.54242498	         -0.15291257	          0.82607075	         -0.21006529	          0.92737281	          0.30960013	         -0.81341731	         -0.34146364	          0.47090855	         -0.58159660	          0.97209952	          0.27477477	
          2.34000000	          0.54052266	         -0.15183763	          0.82751471	         -0.21485972	          0.92605235	          0.31026173	         -0.81343135	         -0.34550308	          0.46792849	         -0.58549717	          0.97466653	          0.27385134	
          2.35000000	          0.54513957	         -0.15050127	          0.82472554	         -0.21774196	          0.92457511	          0.31264884	         -0.80957475	         -0.35001462	          0.47125204	         -0.58576748	          0.96971671	          0.26936852	
          2.36000000	          0.55603628	         -0.14822349	          0.81783461	         -0.21897449	          0.92308309	          0.31617683	         -0.80179413	         -0.35489070	          0.48081053	         -0.58169333	          0.95763797	          0.26051364	
          2.37000000	          0.56731727	         -0.14485081	          0.81065983	         -0.22022410	          0.92186913	          0.31883956	         -0.79350644	         -0.35941002	          0.49109264	         -0.57584445	          0.94527816	          0.24998498	
          2.38000000	          0.56182851	         -0.14494885	          0.81445599	         -0.22361651	          0.92126857	          0.31821357	         -0.79645739	         -0.36090727	          0.48518199	         -0.58048675	          0.95179099	          0.25248894	
          2.39000000	          0.55537801	         -0.14449730	          0.81894798	         -0.22712484	          0.92099060	          0.31652901	         -0.79998098	         -0.36179668	          0.47867900	         -0.58424689	          0.95957541	          0.25453505	
          2.40000000	          0.55662935	         -0.14349433	          0.81827450	         -0.22805585	          0.92073718	          0.31659687	         -0.79884560	         -0.36283940	          0.47978461	         -0.58328448	          0.95840280	          0.25229831	
          2.41000000	          0.56513492	         -0.14183080	          0.81271554	         -0.22666202	          0.92050950	          0.31825554	         -0.79325081	         -0.36406906	          0.48806440	         -0.57783390	          0.94879767	          0.24588955	
          2.42000000	          0.56721653	         -0.14221081	          0.81119757	         -0.22548515	          0.92052564	          0.31904386	         -0.79209965	         -0.36387996	          0.49007093	         -0.57708890	          0.94619714	          0.24565335	
          2.43000000	          0.55826686	         -0.14349523	          0.81715802	         -0.22704476	          0.92090799	          0.31682669	         -0.79799047	         -0.36240529	          0.48153257	         -0.58194707	          0.95646320	          0.25159067	
          2.44000000	          0.54650629	         -0.14462256	          0.82487284	         -0.22949777	          0.92140516	          0.31359737	         -0.80539534	         -0.36068941	          0.47036315	         -0.58803488	          0.96997722	          0.25870101	
          2.45000000	          0.54237715	         -0.14504884	          0.82751910	         -0.23003148	          0.92170379	          0.31232619	         -0.80803004	         -0.35975403	          0.46654527	         -0.58992328	          0.97467435	          0.26131650	
